<?xml version="1.0" standalone="no"?>
<!DOCTYPE svg PUBLIC "-//W3C//DTD SVG 20010904//EN"
 "http://www.w3.org/TR/2001/REC-SVG-20010904/DTD/svg10.dtd">
<svg version="1.0" xmlns="http://www.w3.org/2000/svg"
 width="300.000000pt" height="365.000000pt" viewBox="0 0 300.000000 365.000000"
 preserveAspectRatio="xMidYMid meet">
<metadata>
Created by potrace 1.10, written by Peter Selinger 2001-2011
</metadata>
<g transform="translate(0.000000,365.000000) scale(0.050000,-0.050000)"
fill="#ba0404" stroke="none">
<path d="M1564 5645 c-726 -910 -1370 -1718 -1432 -1795 -62 -77 -110 -151
-107 -164 3 -13 303 -377 667 -810 364 -432 1056 -1254 1538 -1826 482 -572
891 -1042 908 -1044 21 -3 211 228 535 650 277 360 758 983 1069 1384 1330
1719 1245 1604 1219 1646 -14 22 -354 427 -757 902 -1044 1228 -2185 2573
-2248 2648 -29 35 -58 64 -63 64 -6 0 -604 -745 -1329 -1655z"/>
</g>
</svg>
