<?xml version="1.0" standalone="no"?>
<!DOCTYPE svg PUBLIC "-//W3C//DTD SVG 20010904//EN"
 "http://www.w3.org/TR/2001/REC-SVG-20010904/DTD/svg10.dtd">
<svg version="1.0" xmlns="http://www.w3.org/2000/svg"
 width="300.000000pt" height="169.000000pt" viewBox="0 0 300.000000 169.000000"
 preserveAspectRatio="xMidYMid meet">
<metadata>
Created by potrace 1.10, written by Peter Selinger 2001-2011
</metadata>
<g transform="translate(0.000000,169.000000) scale(0.050000,-0.050000)"
fill="#DE0000" stroke="none">
<path d="M4125 2751 c-262 -63 -514 -246 -668 -483 l-83 -128 -427 0 -427 0 0
230 0 230 -940 0 -940 0 0 -240 0 -240 -91 0 c-88 0 -98 -6 -319 -215 l-227
-215 -2 -127 -1 -128 219 217 c221 219 239 231 356 257 l65 14 0 -621 0 -622
940 0 940 0 0 593 0 593 255 -13 c140 -7 314 -13 385 -13 l130 0 2 -155 c7
-711 694 -1225 1396 -1045 503 128 836 546 839 1055 1 91 7 165 14 165 26 0
131 -89 294 -248 l165 -161 0 121 0 121 -197 193 c-176 173 -205 194 -270 194
-68 0 -75 7 -127 115 -208 428 -781 677 -1281 556z m530 -241 c669 -158 926
-909 475 -1387 -457 -484 -1279 -373 -1555 211 -307 646 340 1350 1080 1176z
m-2295 -870 l0 -800 -770 0 -770 0 0 800 0 800 770 0 770 0 0 -800z"/>
</g>
</svg>
